<svg version="1.1" id="Layer_1" xmlns="http://www.w3.org/2000/svg" xmlns:xlink="http://www.w3.org/1999/xlink" x="0px" y="0px"
	 width="100%" viewBox="0 0 1024 1024" enable-background="new 0 0 1024 1024" xml:space="preserve">
<path fill="#2e2e2e" opacity="1.000000" stroke="none" 
	d="
M940.920166,967.941406 
	C904.930908,997.869446 863.930786,1015.049072 817.783508,1020.081360 
	C811.314209,1020.786804 804.846558,1021.172546 798.339905,1021.171448 
	C607.030579,1021.139771 415.716888,1021.852051 224.414291,1020.708557 
	C159.017960,1020.317627 104.141273,992.847229 60.674229,943.762878 
	C31.527264,910.849182 14.332887,872.140991 7.424839,828.848877 
	C5.641091,817.670166 4.883110,806.361267 4.885425,794.995605 
	C4.923747,606.852478 4.827615,418.709290 4.919204,230.566177 
	C4.970916,124.338974 78.487167,33.039425 182.246338,10.105892 
	C198.215622,6.576254 214.421158,4.915284 230.829880,4.920824 
	C418.473083,4.984179 606.116455,4.838494 793.759460,5.027097 
	C861.035889,5.094718 917.830383,30.157009 963.158630,79.795158 
	C995.299866,114.992447 1013.862549,156.796692 1019.469482,204.263809 
	C1020.605774,213.883820 1021.113770,223.502411 1021.113037,233.175980 
	C1021.098145,419.152710 1020.985779,605.129578 1021.185791,791.106140 
	C1021.238464,840.096741 1007.999268,884.746521 980.190674,925.044312 
	C969.155273,941.035706 956.019287,955.158875 940.920166,967.941406 
M850.121338,77.428772 
	C833.088440,71.008507 815.378601,68.189644 797.270020,68.184441 
	C607.458557,68.129852 417.647064,68.147087 227.835587,68.209290 
	C216.662415,68.212952 205.563141,69.458122 194.639084,71.926071 
	C120.791878,88.609550 68.177368,154.403687 68.159126,230.208130 
	C68.113892,418.186432 68.129005,606.164734 68.069199,794.143005 
	C68.062614,814.838379 71.569481,834.744690 78.954163,854.163757 
	C102.192986,915.273865 162.948425,957.866699 228.111786,957.889587 
	C417.756561,957.956177 607.401428,957.894775 797.046265,957.893738 
	C806.571472,957.893677 816.047119,957.055725 825.387146,955.382568 
	C900.347290,941.953857 957.660950,874.472168 957.765503,798.452026 
	C958.027527,607.974365 957.906799,417.496124 957.815674,227.018173 
	C957.808472,211.989456 955.760742,197.090118 951.004272,182.760849 
	C934.160522,132.017380 900.918945,96.818611 850.121338,77.428772 
z"/>
<path fill="#2e2e2e" opacity="1.000000" stroke="none" 
	d="
M771.168213,440.131409 
	C821.215332,400.023163 897.235657,420.162659 918.916809,482.663910 
	C937.817749,537.150574 902.569336,596.164246 845.464478,605.380310 
	C791.430237,614.100830 741.718811,576.217651 736.957764,521.789185 
	C734.099548,489.114136 745.397583,461.590607 771.168213,440.131409 
M774.026550,536.472046 
	C781.753296,554.184998 794.803833,566.468567 813.360107,571.423035 
	C858.181824,583.390381 897.865112,546.909729 889.585449,501.300720 
	C885.165894,476.955048 869.864380,461.019104 846.247803,454.518372 
	C821.949951,447.830139 800.380127,454.431580 783.989319,473.601715 
	C768.361145,491.880127 765.196045,513.075500 774.026550,536.472046 
z"/>
<path fill="#2e2e2e" opacity="1.000000" stroke="none" 
	d="
M577.020630,428.916992 
	C626.077820,406.277893 682.037048,425.742676 703.744446,473.582458 
	C730.294006,532.093384 693.465271,595.890320 633.762512,605.422913 
	C583.078186,613.515503 534.745911,580.345459 525.944031,527.017334 
	C519.433960,487.574463 539.872986,448.276855 577.020630,428.916992 
M663.028503,554.524658 
	C686.623596,528.884094 685.051514,491.459412 659.387329,467.843323 
	C640.969604,450.895386 612.687866,447.292328 590.489014,459.065796 
	C567.751770,471.124847 554.527222,496.363586 558.482300,521.204346 
	C562.384827,545.715210 576.114685,562.924561 599.682007,570.638916 
	C623.406799,578.404907 644.686707,572.735779 663.028503,554.524658 
z"/>
<path fill="#2e2e2e" opacity="1.000000" stroke="none" 
	d="
M139.211212,438.160767 
	C189.569931,402.380676 255.827469,419.592499 281.553436,474.839661 
	C298.215302,510.621460 288.436981,555.780518 258.818756,582.349731 
	C240.834839,598.482239 219.786118,606.807495 196.022293,606.714539 
	C148.304306,606.527832 111.391258,573.647644 103.712151,529.485413 
	C97.260628,492.382935 110.053726,462.128601 139.211212,438.160767 
M163.219437,564.257324 
	C201.319489,588.519897 251.935638,564.102417 256.602325,519.208923 
	C260.944122,477.440948 221.745041,443.321198 181.001755,454.125610 
	C155.409882,460.912109 139.589279,478.109070 135.911560,504.460693 
	C132.440475,529.331787 141.664978,549.474304 163.219437,564.257324 
z"/>
<path fill="#2e2e2e" opacity="1.000000" stroke="none" 
	d="
M335.591949,573.376587 
	C319.513306,554.010498 312.298645,531.883240 313.827881,507.305603 
	C316.727600,460.702026 350.599579,427.380096 391.674194,420.700958 
	C444.099030,412.176178 491.380005,446.674774 500.114471,498.919189 
	C508.360352,548.240906 472.980194,597.546143 423.270905,605.240479 
	C388.528839,610.618103 359.246857,600.024597 335.591949,573.376587 
M355.172058,481.648529 
	C347.397583,494.935638 344.528839,509.090607 347.370270,524.346252 
	C353.650391,558.063721 387.845917,580.218079 421.395813,572.233398 
	C454.885193,564.263000 475.532501,529.519348 465.768311,496.635254 
	C458.253021,471.325043 440.886444,456.257538 414.775269,452.876526 
	C389.441742,449.596252 369.694733,459.874268 355.172058,481.648529 
z"/>
<path fill="#2e2e2e" opacity="1.000000" stroke="none" 
	d="
M782.988892,208.877991 
	C763.768738,177.719025 785.689514,140.176270 820.960449,139.813583 
	C845.284119,139.563461 865.307373,160.042984 865.320740,184.565811 
	C865.334290,209.427063 845.807068,229.221954 821.203918,229.368530 
	C804.881042,229.465759 792.438965,222.354004 782.988892,208.877991 
z"/>
</svg>